<?xml version="1.0" standalone="no"?>
<!DOCTYPE svg PUBLIC "-//W3C//DTD SVG 20010904//EN"
 "http://www.w3.org/TR/2001/REC-SVG-20010904/DTD/svg10.dtd">
<svg version="1.0" xmlns="http://www.w3.org/2000/svg"
 width="300.000000pt" height="148.000000pt" viewBox="0 0 300.000000 148.000000"
 preserveAspectRatio="xMidYMid meet">
<metadata>
Created by potrace 1.10, written by Peter Selinger 2001-2011
</metadata>
<g transform="translate(0.000000,148.000000) scale(0.100000,-0.100000)"
fill="#000000" stroke="none">
<path d="M1377 1140 c-3 -8 -25 -64 -47 -125 -92 -245 -204 -546 -238 -642
l-37 -103 -142 0 c-79 0 -143 2 -143 4 0 2 46 81 101 177 56 96 158 271 227
389 69 118 133 227 143 242 11 14 19 29 19 32 0 3 -135 6 -300 6 l-300 0 1
-137 c1 -105 3 -126 9 -88 4 28 13 62 18 76 16 41 73 100 112 117 37 16 300
31 300 17 0 -4 -31 -60 -69 -124 -37 -64 -139 -237 -226 -386 -86 -148 -166
-285 -177 -302 l-20 -33 336 0 336 0 -1 128 c-1 124 -1 126 -14 75 -7 -29 -21
-67 -32 -85 -22 -39 -106 -98 -139 -98 l-23 0 25 68 c14 37 36 97 50 135 l26
67 139 0 c91 0 138 4 134 10 -4 6 -60 10 -137 10 -120 0 -130 1 -123 18 7 17
118 324 128 352 4 13 5 13 10 0 4 -8 54 -145 112 -305 58 -159 112 -307 120
-327 l14 -37 -57 -4 c-31 -2 40 -3 158 -3 118 0 189 1 158 3 l-58 4 0 214 0
215 89 0 c48 0 103 -5 122 -11 113 -38 139 -157 73 -326 l-37 -92 -46 -4 c-25
-2 -1 -3 54 -4 64 0 84 2 55 6 l-45 6 26 74 26 74 11 -46 c22 -86 89 -137 180
-137 37 0 102 27 102 41 0 5 -13 3 -30 -6 -42 -22 -76 -19 -98 10 -16 20 -20
46 -24 143 -5 113 -7 122 -35 165 -20 29 -28 49 -22 58 4 8 32 78 60 158 l52
143 70 -188 c38 -104 93 -254 123 -335 30 -80 54 -148 54 -152 0 -3 -24 -8
-52 -10 -29 -2 30 -3 132 -3 102 0 157 1 124 3 l-61 4 -153 417 c-84 229 -157
428 -162 442 -8 22 -15 9 -59 -105 -27 -72 -70 -187 -96 -257 l-46 -128 -32
20 c-17 11 -56 26 -86 34 -42 11 -49 16 -34 21 98 33 159 84 176 147 26 99
-35 190 -156 234 -41 15 -90 19 -275 22 -124 2 -222 0 -217 -4 4 -4 30 -7 57
-5 l50 2 0 -313 c0 -172 4 -319 9 -327 20 -32 26 28 29 307 l3 292 25 0 24 0
-2 -382 -3 -383 -57 -3 c-50 -3 -59 0 -72 20 -8 13 -54 129 -101 258 -146 396
-140 377 -129 408 5 15 13 27 18 27 4 0 52 -118 106 -263 88 -236 118 -302
140 -302 9 0 -7 50 -129 385 -125 344 -117 324 -124 305z m594 -62 c52 -29 73
-75 77 -174 7 -151 -26 -186 -180 -192 l-98 -4 0 202 0 203 82 -7 c55 -5 94
-14 119 -28z m-797 -21 c-3 -30 -429 -747 -448 -753 -52 -17 -35 21 170 373
115 197 219 368 232 381 24 25 48 25 46 -1z m966 -116 c12 -43 -2 -100 -30
-126 -20 -18 -20 -18 -20 47 0 36 -3 87 -6 114 l-7 49 27 -24 c14 -14 30 -40
36 -60z m344 -268 c70 -190 125 -352 122 -360 -3 -7 -10 -13 -15 -13 -28 0
-41 32 -195 455 -30 83 -60 162 -66 177 -10 22 -10 33 0 58 7 16 16 30 20 30
4 0 64 -156 134 -347z m-320 -107 c18 -23 21 -45 25 -144 3 -108 2 -115 -14
-102 -35 29 -48 74 -53 179 -5 112 1 122 42 67z"/>
<path d="M2230 560 c0 -6 37 -10 91 -10 57 0 88 4 84 10 -3 6 -44 10 -91 10
-49 0 -84 -4 -84 -10z"/>
</g>
</svg>
